<?xml version="1.0" standalone="no"?>
<!DOCTYPE svg PUBLIC "-//W3C//DTD SVG 1.1//EN" "http://www.w3.org/Graphics/SVG/1.1/DTD/svg11.dtd" >
<svg xmlns="http://www.w3.org/2000/svg">
<metadata></metadata>
<defs>
<font id="godstoneregular" horiz-adv-x="2048" >
<font-face units-per-em="2048" ascent="2048" descent="0" />
<missing-glyph horiz-adv-x="500" />
<glyph />
<glyph />
<glyph unicode="&#xd;" />
<glyph unicode=" " />
<glyph unicode="!" d="M512 256v256h256v-256h-256zM768 768v256h256v-256h-256zM1024 1024v512h256v-512h-256zM1280 1536v512h256v-512h-256z" />
<glyph unicode="&#x22;" d="M256 1280v768h256v-768h-256zM768 1280v768h256v-768h-256z" />
<glyph unicode="#" d="M256 512v256h512v256h-256v256h256v256h256v-256h256v256h256v-256h256v-256h-256v-256h256v-256h-256v-256h-256v256h-512v-256h-256v256h-256zM1024 768h256v256h-256v-256z" />
<glyph unicode="$" d="M256 512v256h256v-256h-256zM256 1280v256h256v-256h-256zM512 256v256h256v512h-256v256h256v256h-256v256h256v256h256v-256h256v-256h-256v-256h256v-256h-256v-512h256v-256h-256v-256h-256v256h-256zM1280 512v512h256v-512h-256z" />
<glyph unicode="%" d="M256 256v256h256v-256h-256zM256 1536v256h256v-256h-256zM512 512v256h256v-256h-256zM512 1280v256h256v-256h-256zM512 1792v256h256v-256h-256zM768 768v256h256v-256h-256zM768 1536v256h256v-256h-256zM1024 256v256h256v-256h-256zM1024 1024v256h256v-256h-256z M1280 0v256h256v-256h-256zM1280 512v256h256v-256h-256zM1280 1280v256h256v-256h-256zM1536 256v256h256v-256h-256zM1536 1536v256h256v-256h-256z" />
<glyph unicode="&#x26;" d="M256 768v256h1280v-256h-256v-256h-256v-256h-256v256h-256v256h-256z" />
<glyph unicode="'" d="M256 1280v256h256v-256h-256zM512 1536v512h256v-512h-256z" />
<glyph unicode="(" d="M256 512v768h256v-768h-256zM512 256v256h256v-256h-256zM512 1280v512h256v-512h-256zM768 1792v256h256v-256h-256z" />
<glyph unicode=")" d="M256 256v256h256v-256h-256zM512 512v256h256v-256h-256zM512 1792v256h256v-256h-256zM768 768v1024h256v-1024h-256z" />
<glyph unicode="+" d="M512 768v256h256v256h256v-256h256v-256h-256v-256h-256v256h-256z" />
<glyph unicode="," d="M512 0v256h256v-256h-256zM512 512v256h512v-512h-256v256h-256z" />
<glyph unicode="-" d="M512 768v256h768v-256h-768z" />
<glyph unicode="." d="M256 256v256h256v-256h-256z" />
<glyph unicode="/" d="M256 256v256h256v-256h-256zM512 512v256h256v-256h-256zM768 768v256h256v-256h-256zM1024 1024v256h256v-256h-256zM1280 1280v256h256v-256h-256zM1536 1536v256h256v-256h-256z" />
<glyph unicode="0" d="M256 512v768h256v-512h256v-256h512v-256h-768v256h-256zM512 1280v512h256v-512h-256zM768 768v256h256v-256h-256zM768 1792v256h512v-256h-512zM1024 1024v256h256v-256h-256zM1280 512v256h256v-256h-256zM1280 1280v512h256v-256h256v-768h-256v512h-256z" />
<glyph unicode="1" d="M512 256v256h256v512h256v-512h256v-256h-768zM768 1536v256h256v256h256v-1024h-256v512h-256z" />
<glyph unicode="2" d="M256 256v512h256v-256h1024v-256h-1280zM512 768v256h256v-256h-256zM512 1536v256h256v-256h-256zM768 1024v256h512v-256h-512zM768 1792v256h512v-256h-512zM1280 1280v512h256v-512h-256z" />
<glyph unicode="3" d="M256 512v256h256v-256h-256zM512 256v256h768v-256h-768zM512 1536v256h256v-256h-256zM768 1024v256h512v-256h-512zM768 1792v256h512v-256h-512zM1280 512v512h256v-512h-256zM1280 1280v512h256v-512h-256z" />
<glyph unicode="4" d="M256 1024v512h256v-256h512v256h256v-768h-256v256h-768zM512 1536v512h256v-512h-256zM768 256v512h256v-512h-256zM1280 1536v512h256v-512h-256z" />
<glyph unicode="5" d="M256 512v256h256v-256h-256zM512 256v256h768v-256h-768zM512 1280v256h256v-256h-256zM768 1024v256h512v-256h-512zM768 1536v256h256v-256h-256zM1024 1792v256h768v-256h-768zM1280 512v512h256v-512h-256z" />
<glyph unicode="6" d="M256 512v512h256v-512h-256zM512 256v256h768v-256h-768zM512 1024v512h256v-256h512v-256h-768zM768 1536v256h256v-256h-256zM1024 1792v256h256v-256h-256zM1280 512v512h256v-512h-256z" />
<glyph unicode="7" d="M256 1536v512h1280v-512h-256v256h-768v-256h-256zM512 256v512h256v-512h-256zM768 768v512h256v-512h-256zM1024 1280v256h256v-256h-256z" />
<glyph unicode="8" d="M256 512v512h256v-512h-256zM512 256v256h768v-256h-768zM512 1024v768h256v-512h512v-256h-768zM768 1792v256h512v-256h-512zM1280 512v512h256v-512h-256zM1280 1280v512h256v-512h-256z" />
<glyph unicode="9" d="M256 1280v512h256v-512h-256zM512 256v512h256v-512h-256zM512 1024v256h512v-512h-256v256h-256zM512 1792v256h768v-256h-768zM1024 1280v256h256v-256h-256zM1280 1536v256h256v-256h-256z" />
<glyph unicode=":" d="M512 256v256h256v-256h-256zM768 1280v256h256v-256h-256z" />
<glyph unicode=";" d="M256 0v256h256v-256h-256zM512 256v256h256v-256h-256zM768 1280v256h256v-256h-256z" />
<glyph unicode="&#x3c;" d="M512 768v256h256v256h256v256h256v-1280h-256v256h-256v256h-256z" />
<glyph unicode="=" d="M512 512v256h1024v-256h-1024zM512 1024v256h1024v-256h-1024z" />
<glyph unicode="&#x3e;" d="M512 256v1280h256v-256h256v-256h256v-256h-256v-256h-256v-256h-256z" />
<glyph unicode="?" d="M512 256v256h256v-256h-256zM512 1536v256h256v-256h-256zM768 768v256h256v-256h-256zM768 1792v256h512v-256h-512zM1024 1024v256h256v-256h-256zM1280 1280v512h256v-512h-256z" />
<glyph unicode="A" d="M256 256v512h256v-512h-256zM512 768v512h256v512h256v-512h256v512h256v-768h-768v-256h-256zM1024 1792v256h256v-256h-256zM1536 256v768h256v-768h-256z" />
<glyph unicode="B" d="M256 256v256h256v512h256v-512h768v-256h-1280zM512 1792v256h1024v-256h-512v-512h512v-256h-768v768h-256zM1536 512v512h256v-512h-256zM1536 1280v512h256v-512h-256z" />
<glyph unicode="C" d="M256 512v768h256v-768h-256zM512 256v256h1024v-256h-1024zM512 1280v512h256v-512h-256zM768 1792v256h768v-256h-768zM1536 512v256h256v-256h-256zM1536 1536v256h256v-256h-256z" />
<glyph unicode="D" d="M256 256v256h256v768h256v-768h512v-256h-1024zM512 1792v256h768v-256h-256v-512h-256v512h-256zM1280 512v256h256v-256h-256zM1280 1536v256h256v-256h-256zM1536 768v768h256v-768h-256z" />
<glyph unicode="E" d="M256 256v768h256v-512h1024v-256h-1280zM512 1024v1024h1280v-256h-1024v-512h256v-256h-512z" />
<glyph unicode="F" d="M256 256v768h256v-768h-256zM512 1024v1024h1280v-256h-1024v-512h256v-256h-512z" />
<glyph unicode="G" d="M256 512v768h256v-768h-256zM512 256v256h1024v-256h-1024zM512 1280v512h256v-512h-256zM768 1792v256h768v-256h-768zM1024 768v256h768v-512h-256v256h-512zM1536 1536v256h256v-256h-256z" />
<glyph unicode="H" d="M256 256v768h256v-768h-256zM512 1024v1024h256v-768h768v768h256v-1792h-256v768h-1024z" />
<glyph unicode="I" d="M512 256v256h256v768h256v-768h256v-256h-768zM768 1792v256h768v-256h-256v-512h-256v512h-256z" />
<glyph unicode="J" d="M256 512v256h256v-256h-256zM512 256v256h512v-256h-512zM1024 512v512h256v-512h-256zM1024 1792v256h768v-256h-256v-768h-256v768h-256z" />
<glyph unicode="K" d="M256 256v768h256v-768h-256zM512 1024v1024h256v-768h256v-256h-512zM1024 768v256h512v-256h-512zM1024 1280v256h256v-256h-256zM1280 1536v256h256v-256h-256zM1536 256v512h256v-512h-256zM1536 1792v256h256v-256h-256z" />
<glyph unicode="L" d="M256 256v256h256v512h256v-512h1024v-256h-1536zM768 1024v512h256v-512h-256zM1024 1536v512h256v-512h-256z" />
<glyph unicode="M" d="M256 256v768h256v-768h-256zM512 1024v1024h256v-256h256v-256h-256v-512h-256zM1024 1280v256h256v-256h-256zM1280 1536v256h256v256h256v-1792h-256v1280h-256z" />
<glyph unicode="N" d="M256 256v768h256v-768h-256zM512 1024v1024h256v-256h256v-256h-256v-512h-256zM1024 1024v512h256v-512h-256zM1280 768v256h256v1024h256v-1792h-256v512h-256z" />
<glyph unicode="O" d="M256 512v768h256v-768h-256zM512 256v256h768v-256h-768zM512 1280v512h256v-512h-256zM768 1792v256h512v-256h-512zM1280 512v256h256v-256h-256zM1280 1536v256h256v-256h-256zM1536 768v768h256v-768h-256z" />
<glyph unicode="P" d="M256 256v512h256v-512h-256zM512 768v512h256v512h-256v256h1024v-256h-512v-512h512v-256h-768v-256h-256zM1536 1280v512h256v-512h-256z" />
<glyph unicode="Q" d="M256 512v768h256v-768h-256zM512 256v256h768v-256h-768zM512 1280v512h256v-512h-256zM768 1792v256h512v-256h-512zM1024 768v256h256v-256h-256zM1280 512v256h256v-256h-256zM1280 1536v256h256v-256h-256zM1536 0v512h256v-512h-256zM1536 768v768h256v-768h-256z " />
<glyph unicode="R" d="M256 256v512h256v-512h-256zM512 768v512h256v512h-256v256h1024v-256h-512v-512h512v-256h-256v-256h-256v256h-256v-256h-256zM1280 512v256h256v-256h-256zM1536 256v256h256v-256h-256zM1536 1280v512h256v-512h-256z" />
<glyph unicode="S" d="M256 512v256h256v-256h-256zM512 256v256h1024v-256h-1024zM512 1280v512h256v-512h-256zM768 1024v256h768v-256h-768zM768 1792v256h768v-256h-768zM1536 512v512h256v-512h-256zM1536 1536v256h256v-256h-256z" />
<glyph unicode="T" d="M256 1792v256h1280v-256h-512v-768h-256v768h-512zM512 256v768h256v-768h-256z" />
<glyph unicode="U" d="M256 512v768h256v-768h-256zM512 256v256h1024v-256h-1024zM512 1280v768h256v-768h-256zM1536 512v1536h256v-1536h-256z" />
<glyph unicode="V" d="M256 1280v768h256v-768h-256zM512 768v512h256v-512h-256zM768 512v256h256v-256h-256zM1024 256v256h256v-256h-256zM1280 512v768h256v-768h-256zM1536 1280v768h256v-768h-256z" />
<glyph unicode="W" d="M256 1280v768h256v-768h-256zM512 256v1024h256v-512h256v-256h-256v-256h-256zM1024 768v256h256v-256h-256zM1280 512v256h256v1280h256v-1792h-256v256h-256z" />
<glyph unicode="X" d="M256 256v256h256v-256h-256zM256 1792v256h256v-256h-256zM512 512v256h256v-256h-256zM512 1536v256h256v-256h-256zM768 768v256h256v-256h-256zM768 1280v256h256v-256h-256zM1024 1024v256h256v-256h-256zM1280 768v256h256v-256h-256zM1280 1280v256h256v-256h-256z M1536 256v512h256v-512h-256zM1536 1536v512h256v-512h-256z" />
<glyph unicode="Y" d="M256 1792v256h256v-256h-256zM512 1536v256h256v-256h-256zM768 256v512h256v-512h-256zM768 1280v256h256v-256h-256zM1024 768v512h256v-512h-256zM1280 1280v256h256v-256h-256zM1536 1536v512h256v-512h-256z" />
<glyph unicode="Z" d="M256 256v256h256v256h256v-256h768v-256h-1280zM512 1536v512h1280v-512h-256v256h-768v-256h-256zM768 768v256h256v-256h-256zM1024 1024v256h256v-256h-256zM1280 1280v256h256v-256h-256zM1536 512v256h256v-256h-256z" />
<glyph unicode="[" d="M768 256v1024h256v-768h256v-256h-512zM1024 1280v768h512v-256h-256v-512h-256z" />
<glyph unicode="\" d="M256 1536v256h256v-256h-256zM512 1280v256h256v-256h-256zM768 1024v256h256v-256h-256zM1024 768v256h256v-256h-256zM1280 512v256h256v-256h-256zM1536 256v256h256v-256h-256z" />
<glyph unicode="]" d="M256 256v256h256v768h256v-1024h-512zM512 1792v256h512v-768h-256v512h-256z" />
<glyph unicode="^" d="M256 1024v256h256v256h256v256h256v-256h256v-256h256v-256h-1280z" />
<glyph unicode="a" d="M256 512v512h256v-512h-256zM512 256v256h768v-256h-768zM512 1024v256h256v-256h-256zM768 1280v256h768v-1024h-256v768h-512zM1536 256v256h256v-256h-256z" />
<glyph unicode="b" d="M256 256v512h256v-256h768v-256h-1024zM512 768v768h256v-256h512v-256h-512v-256h-256zM768 1536v512h256v-512h-256zM1280 512v512h256v-512h-256z" />
<glyph unicode="c" d="M256 512v512h256v-512h-256zM512 256v256h768v-256h-768zM512 1024v256h256v-256h-256zM768 1280v256h512v-256h-512zM1280 512v256h256v-256h-256zM1280 1024v256h256v-256h-256z" />
<glyph unicode="d" d="M256 256v768h256v-512h512v512h-512v256h512v768h256v-1792h-1024z" />
<glyph unicode="e" d="M256 512v256h256v-256h-256zM512 256v256h768v-256h-768zM512 768v512h256v-256h512v256h256v-512h-1024zM768 1280v256h512v-256h-512z" />
<glyph unicode="f" d="M256 256v256h256v-256h-256zM512 0v256h256v-256h-256zM512 768v256h256v512h256v-512h512v-256h-512v-512h-256v512h-256zM1024 1536v256h256v-256h-256zM1280 1792v256h256v-256h-256zM1536 1536v256h256v-256h-256z" />
<glyph unicode="g" d="M256 256v256h256v-256h-256zM512 0v256h768v-256h-768zM512 768v512h256v-512h-256zM768 512v256h768v512h-768v256h1024v-1024h-256v-256h-256v256h-512z" />
<glyph unicode="h" d="M256 256v512h256v-512h-256zM512 768v768h256v-256h512v-256h-512v-256h-256zM768 1536v512h256v-512h-256zM1280 256v768h256v-768h-256z" />
<glyph unicode="i" d="M768 256v512h256v-512h-256zM1024 768v512h256v-512h-256zM1024 1536v256h256v-256h-256z" />
<glyph unicode="j" d="M256 256v256h256v-256h-256zM512 0v256h512v-256h-512zM1024 256v256h256v-256h-256zM1280 512v768h256v-768h-256zM1280 1536v256h256v-256h-256z" />
<glyph unicode="k" d="M256 256v512h256v-512h-256zM512 768v768h256v-512h256v-256h-512zM768 1536v512h256v-512h-256zM1024 512v256h256v-256h-256zM1024 1024v256h256v-256h-256zM1280 256v256h256v-256h-256zM1280 1280v256h256v-256h-256z" />
<glyph unicode="l" d="M768 256v512h256v-512h-256zM1024 768v768h256v-768h-256zM1280 1536v512h256v-512h-256z" />
<glyph unicode="m" d="M256 256v512h256v-512h-256zM512 768v512h256v-512h-256zM768 1280v256h256v-256h-256zM1024 1024v256h256v-256h-256zM1280 1280v256h256v-256h-256zM1536 256v1024h256v-1024h-256z" />
<glyph unicode="n" d="M256 256v512h256v-512h-256zM256 1280v256h256v-256h-256zM512 768v512h256v-512h-256zM768 1280v256h512v-256h-512zM1280 256v1024h256v-1024h-256z" />
<glyph unicode="o" d="M256 512v512h256v-512h-256zM512 256v256h768v-256h-768zM512 1024v256h256v-256h-256zM768 1280v256h512v-256h-512zM1280 512v768h256v-768h-256z" />
<glyph unicode="p" d="M256 0v1280h256v-512h768v-256h-768v-512h-256zM512 1280v256h768v-256h-768zM1280 768v512h256v-512h-256z" />
<glyph unicode="q" d="M256 768v512h256v-512h-256zM512 512v256h768v512h-768v256h1024v-1024h-256v-256h256v-256h-512v512h-512zM1536 256v256h256v-256h-256z" />
<glyph unicode="r" d="M256 256v512h256v-512h-256zM256 1280v256h256v-256h-256zM512 768v512h256v-512h-256zM768 1280v256h512v-256h-512zM1280 1024v256h256v-256h-256z" />
<glyph unicode="s" d="M256 512v256h256v-256h-256zM512 256v256h768v-256h-768zM512 1024v256h256v-256h-256zM768 768v256h512v-256h-512zM768 1280v256h768v-256h-768zM1280 512v256h256v-256h-256zM1536 1024v256h256v-256h-256z" />
<glyph unicode="t" d="M256 1024v256h512v256h256v-256h512v-256h-512v-256h-256v256h-512zM512 256v512h256v-512h-256zM1024 1536v512h256v-512h-256z" />
<glyph unicode="u" d="M256 512v512h256v-512h-256zM512 256v256h768v-256h-768zM512 1024v512h256v-512h-256zM1280 512v1024h256v-1024h-256z" />
<glyph unicode="v" d="M256 1280v256h256v-256h-256zM512 1024v256h256v-256h-256zM768 512v512h256v-512h-256zM1024 256v256h256v-256h-256zM1280 512v512h256v-512h-256zM1536 1024v512h256v-512h-256z" />
<glyph unicode="w" d="M256 1024v512h256v-512h-256zM512 512v512h256v-512h-256zM768 256v256h256v-256h-256zM1024 512v256h256v-256h-256zM1280 256v256h256v-256h-256zM1536 512v1024h256v-1024h-256z" />
<glyph unicode="x" d="M256 256v256h256v-256h-256zM256 1280v256h256v-256h-256zM512 512v256h256v-256h-256zM512 1024v256h256v-256h-256zM768 768v256h256v-256h-256zM1024 256v512h256v-512h-256zM1024 1024v512h256v-512h-256z" />
<glyph unicode="y" d="M256 1024v256h256v-256h-256zM512 768v256h256v-256h-256zM768 0v256h256v-256h-256zM768 512v256h512v-512h-256v256h-256zM1280 768v512h256v-512h-256z" />
<glyph unicode="z" d="M256 256v256h256v256h256v-256h512v-256h-1024zM256 1024v256h256v-256h-256zM512 1280v256h1024v-256h-256v-256h-256v256h-512zM768 768v256h256v-256h-256zM1280 512v256h256v-256h-256z" />
<glyph unicode="|" d="M0 0v2048h2048v-2048h-2048z" />
<glyph unicode="~" d="M256 768v256h256v-256h-256zM512 1024v256h512v-256h-512zM1024 768v256h512v-256h-512zM1536 1024v256h256v-256h-256z" />
<glyph unicode="&#xa0;" />
<glyph unicode="&#xad;" d="M512 768v256h768v-256h-768z" />
<glyph unicode="&#x2000;" horiz-adv-x="1024" />
<glyph unicode="&#x2001;" />
<glyph unicode="&#x2002;" horiz-adv-x="1024" />
<glyph unicode="&#x2003;" />
<glyph unicode="&#x2004;" horiz-adv-x="682" />
<glyph unicode="&#x2005;" horiz-adv-x="512" />
<glyph unicode="&#x2006;" horiz-adv-x="341" />
<glyph unicode="&#x2007;" horiz-adv-x="341" />
<glyph unicode="&#x2008;" horiz-adv-x="256" />
<glyph unicode="&#x2009;" horiz-adv-x="409" />
<glyph unicode="&#x200a;" horiz-adv-x="113" />
<glyph unicode="&#x2010;" d="M512 768v256h768v-256h-768z" />
<glyph unicode="&#x2011;" d="M512 768v256h768v-256h-768z" />
<glyph unicode="&#x2012;" d="M512 768v256h768v-256h-768z" />
<glyph unicode="&#x2013;" horiz-adv-x="2304" d="M512 768v256h1024v-256h-1024z" />
<glyph unicode="&#x2014;" horiz-adv-x="3328" d="M512 768v256h2048v-256h-2048z" />
<glyph unicode="&#x2018;" d="M256 1536v512h256v-512h-256zM512 1280v256h256v-256h-256z" />
<glyph unicode="&#x2019;" d="M256 1280v256h256v-256h-256zM512 1536v512h256v-512h-256z" />
<glyph unicode="&#x201c;" d="M256 1536v512h256v-512h-256zM512 1280v256h256v-256h-256zM768 1536v512h256v-512h-256zM1024 1280v256h256v-256h-256z" />
<glyph unicode="&#x201d;" d="M256 1280v256h256v-256h-256zM512 1536v512h256v-512h-256zM768 1280v256h256v-256h-256zM1024 1536v512h256v-512h-256z" />
<glyph unicode="&#x202f;" horiz-adv-x="409" />
<glyph unicode="&#x205f;" horiz-adv-x="512" />
<glyph unicode="&#xe000;" horiz-adv-x="1540" d="M0 0v1540h1540v-1540h-1540z" />
</font>
</defs>
</svg>
